<svg xmlns="http://www.w3.org/2000/svg" viewBox="0 0 400 400" id="Dislike"><path fill="#ffe9ca" d="M266.595 231.058c14.805 22.395 22.829 39.666 22.829 66.754v3.339c-.007 11.087-4.292 21.544-12.071 29.44-7.776 7.889-18.153 12.33-29.233 12.507-10.859.142-20.422-8.437-21.317-19.177-2.566-30.944-21.999-56.731-59.415-78.842a9.929 9.929 0 0 1 5.052-18.477h85.875a9.92 9.92 0 0 1 8.28 4.456z" class="colorffe3ca svgShape"></path><path fill="#fcddb1" d="M355.029 193.948c5.056-5.531 8.144-12.892 8.144-20.961 0-11.227-5.975-21.08-14.915-26.552a30.922 30.922 0 0 0 4.325-15.81c0-11.227-5.975-21.082-14.915-26.554a30.948 30.948 0 0 0 4.323-15.81c0-17.152-13.955-31.108-31.11-31.108h-31.386c-7.594 0-14.837-.069-21.839-.136-6.333-.059-12.492-.117-18.515-.117-38.887 0-72.235 2.426-112.352 22.482a9.93 9.93 0 0 0-5.488 8.879v127.088a9.929 9.929 0 0 0 5.488 8.879c2.731 1.366 5.732 2.812 8.91 4.345 9.112 4.396 20.454 9.86 31.687 16.504a9.935 9.935 0 0 0 5.052 1.382h160.007c17.155 0 31.11-13.956 31.11-31.109.001-8.031-3.021-15.6-8.526-21.402z" class="colorfcd2b1 svgShape"></path><path fill="#000000" d="M141.023 236.53V88.266c0-4.983-1.178-9.704-3.276-13.881a31.468 31.468 0 0 0-27.832-17.355H46.373c-5.48.125-9.929 4.567-9.929 10.054V236.53c0 5.48 4.448 9.93 9.929 9.93h84.722c5.48 0 9.928-4.449 9.928-9.93z" class="color2a94f4 svgShape"></path><circle cx="90.553" cy="105.43" r="28.434" fill="#ffa11b" class="colorffbe55 svgShape"></circle></svg>