<svg xmlns="http://www.w3.org/2000/svg" viewBox="0 0 400 400" id="Like"><path fill="#ffe9ca" d="M258.313 173.397h-85.875a9.929 9.929 0 0 1-5.052-18.477c37.416-22.109 56.849-47.897 59.415-78.842.896-10.74 10.458-19.318 21.317-19.177 11.08.178 21.458 4.618 29.234 12.507 7.778 7.896 12.063 18.354 12.068 29.44v3.34c0 27.089-8.021 44.358-22.827 66.754a9.91 9.91 0 0 1-8.28 4.455z" class="colorffe3ca svgShape"></path><path fill="#fcddb1" d="M363.556 184.649c0-17.152-13.955-31.109-31.11-31.109H172.438a9.938 9.938 0 0 0-5.052 1.382c-11.232 6.644-22.574 12.108-31.687 16.504-3.177 1.532-6.179 2.979-8.909 4.345a9.926 9.926 0 0 0-5.488 8.879v127.088a9.928 9.928 0 0 0 5.488 8.88c40.116 20.056 73.464 22.481 112.351 22.481 6.021 0 12.182-.06 18.513-.117 7.005-.066 14.247-.136 21.841-.136h31.386c17.153 0 31.11-13.955 31.11-31.108 0-5.77-1.58-11.175-4.322-15.81 8.939-5.472 14.914-15.327 14.914-26.554 0-5.769-1.58-11.173-4.325-15.81 8.94-5.472 14.915-15.325 14.915-26.552 0-8.069-3.087-15.43-8.144-20.962 5.505-5.8 8.527-13.367 8.527-21.401z" class="colorfcd2b1 svgShape"></path><path fill="#000000" d="M131.096 153.54H46.372c-5.479 0-9.928 4.45-9.928 9.93v169.447c0 5.486 4.448 9.929 9.928 10.054h63.544a31.467 31.467 0 0 0 27.831-17.355 30.837 30.837 0 0 0 3.276-13.881V163.47c0-5.48-4.449-9.93-9.927-9.93z" class="color2a94f4 svgShape"></path><path fill="#ffa11b" d="M118.988 294.57c0 15.706-12.731 28.437-28.437 28.437-15.703 0-28.432-12.73-28.432-28.437 0-15.703 12.729-28.434 28.432-28.434 15.706.001 28.437 12.731 28.437 28.434z" class="colorffbe55 svgShape"></path></svg>