<svg width="32" height="32" viewBox="0 0 32 32" fill="none" xmlns="http://www.w3.org/2000/svg">
<rect width="32" height="32" rx="6" fill="#696A75"/>
<path d="M23.5 11.4218C22.9373 11.6662 22.342 11.8273 21.7328 11.8999C22.373 11.525 22.8545 10.9294 23.0869 10.2249C22.4816 10.5788 21.8205 10.8272 21.1319 10.9593C20.8419 10.6554 20.4932 10.4136 20.1069 10.2487C19.7205 10.0838 19.3047 9.99911 18.8847 9.99988C17.1841 9.99988 15.8078 11.3561 15.8078 13.028C15.8066 13.2606 15.8333 13.4924 15.8872 13.7186C14.6677 13.6615 13.4736 13.3504 12.3812 12.8053C11.2889 12.2602 10.3223 11.4931 9.54344 10.553C9.27018 11.0137 9.12567 11.5393 9.125 12.0749C9.125 13.1249 9.67281 14.053 10.5 14.5968C10.0099 14.5851 9.52987 14.4554 9.10063 14.2186V14.2561C9.10063 15.7249 10.1631 16.9468 11.5694 17.2249C11.3049 17.2954 11.0324 17.3311 10.7587 17.3311C10.5646 17.3315 10.3708 17.3126 10.1803 17.2749C10.5712 18.478 11.7091 19.353 13.0569 19.378C11.9617 20.222 10.6171 20.6782 9.23438 20.6749C8.98894 20.6745 8.74374 20.6599 8.5 20.6311C9.90662 21.5293 11.5417 22.0044 13.2106 21.9999C18.8781 21.9999 21.9744 17.3843 21.9744 13.3811C21.9744 13.2499 21.9709 13.1186 21.9647 12.9905C22.5657 12.563 23.0856 12.0318 23.5 11.4218Z" fill="white"/>
</svg>
