<svg width="32" height="32" viewBox="0 0 32 32" fill="none" xmlns="http://www.w3.org/2000/svg">
<rect width="32" height="32" rx="6" fill="#696A75"/>
<path d="M23.8962 12.6497C23.8962 11.2434 22.8618 10.1122 21.5837 10.1122C19.8524 10.0312 18.0868 10 16.2824 10H15.7199C13.9199 10 12.1512 10.0312 10.4199 10.1125C9.14492 10.1125 8.11054 11.25 8.11054 12.6562C8.03242 13.7684 7.99929 14.8809 8.00117 15.9934C7.99804 17.1059 8.03346 18.2195 8.10742 19.3341C8.10742 20.7403 9.14179 21.8809 10.4168 21.8809C12.2355 21.9653 14.1012 22.0028 15.998 21.9997C17.898 22.0059 19.7585 21.9664 21.5793 21.8809C22.8574 21.8809 23.8918 20.7403 23.8918 19.3341C23.9668 18.2184 24.0012 17.1059 23.998 15.9903C24.0051 14.8778 23.9712 13.7643 23.8962 12.6497ZM14.4699 19.0591V12.9184L19.0012 15.9872L14.4699 19.0591Z" fill="white"/>
</svg>
