<svg width="32" height="32" viewBox="0 0 32 32" fill="none" xmlns="http://www.w3.org/2000/svg">
<rect width="32" height="32" rx="6" fill="#696A75"/>
<path fill-rule="evenodd" clip-rule="evenodd" d="M23 16.0424C23 12.1768 19.8656 9.04242 16 9.04242C12.1344 9.04242 9 12.1768 9 16.0424C9 19.5362 11.5594 22.4321 14.9062 22.9577V18.0665H13.1284V16.0424H14.9062V14.5002C14.9062 12.7462 15.9516 11.7765 17.5503 11.7765C18.3162 11.7765 19.1175 11.9134 19.1175 11.9134V13.6362H18.2344C17.3653 13.6362 17.0934 14.1755 17.0934 14.7299V16.0424H19.0347L18.7247 18.0665H17.0938V22.9584C20.4406 22.433 23 19.5371 23 16.0424Z" fill="white"/>
</svg>
