<svg width="32" height="32" viewBox="0 0 32 32" fill="none" xmlns="http://www.w3.org/2000/svg">
<rect width="32" height="32" rx="6" fill="#696A75"/>
<path d="M18.9166 10.1666C19.6895 10.1689 20.43 10.4769 20.9766 11.0234C21.5231 11.57 21.8311 12.3105 21.8334 13.0834V18.9166C21.8311 19.6895 21.5231 20.43 20.9766 20.9766C20.43 21.5231 19.6895 21.8311 18.9166 21.8334H13.0834C12.3105 21.8311 11.57 21.5231 11.0234 20.9766C10.4769 20.43 10.1689 19.6895 10.1666 18.9166V13.0834C10.1689 12.3105 10.4769 11.57 11.0234 11.0234C11.57 10.4769 12.3105 10.1689 13.0834 10.1666H18.9166ZM18.9166 9H13.0834C10.8375 9 9 10.8375 9 13.0834V18.9166C9 21.1625 10.8375 23 13.0834 23H18.9166C21.1625 23 23 21.1625 23 18.9166V13.0834C23 10.8375 21.1625 9 18.9166 9Z" fill="white"/>
<path d="M19.7916 13.0834C19.6185 13.0834 19.4493 13.0321 19.3054 12.936C19.1615 12.8398 19.0494 12.7032 18.9832 12.5433C18.9169 12.3834 18.8996 12.2075 18.9334 12.0377C18.9671 11.868 19.0505 11.7121 19.1728 11.5897C19.2952 11.4673 19.4511 11.384 19.6209 11.3503C19.7906 11.3165 19.9665 11.3338 20.1264 11.4C20.2863 11.4663 20.423 11.5784 20.5191 11.7223C20.6152 11.8662 20.6666 12.0354 20.6666 12.2084C20.6668 12.3234 20.6443 12.4373 20.6005 12.5436C20.5566 12.6498 20.4921 12.7464 20.4108 12.8277C20.3295 12.909 20.233 12.9735 20.1267 13.0173C20.0204 13.0612 19.9065 13.0837 19.7916 13.0834Z" fill="white"/>
<path d="M16 13.6666C16.4615 13.6666 16.9127 13.8034 17.2964 14.0598C17.6801 14.3162 17.9792 14.6807 18.1558 15.107C18.3324 15.5334 18.3786 16.0026 18.2886 16.4552C18.1986 16.9079 17.9763 17.3237 17.65 17.65C17.3237 17.9763 16.9079 18.1986 16.4552 18.2886C16.0026 18.3786 15.5334 18.3324 15.107 18.1558C14.6807 17.9792 14.3162 17.6801 14.0598 17.2964C13.8034 16.9127 13.6666 16.4615 13.6666 16C13.6672 15.3813 13.9133 14.7882 14.3507 14.3507C14.7882 13.9133 15.3813 13.6672 16 13.6666ZM16 12.5C15.3078 12.5 14.6311 12.7053 14.0555 13.0899C13.4799 13.4744 13.0313 14.0211 12.7664 14.6606C12.5015 15.3001 12.4322 16.0039 12.5673 16.6828C12.7023 17.3617 13.0356 17.9854 13.5251 18.4749C14.0146 18.9644 14.6383 19.2977 15.3172 19.4327C15.9961 19.5678 16.6999 19.4985 17.3394 19.2336C17.9789 18.9687 18.5256 18.5201 18.9101 17.9445C19.2947 17.3689 19.5 16.6922 19.5 16C19.5 15.0717 19.1313 14.1815 18.4749 13.5251C17.8185 12.8687 16.9283 12.5 16 12.5Z" fill="white"/>
</svg>
