<?xml version="1.0" standalone="no"?>
<svg xmlns:xlink="http://www.w3.org/1999/xlink" id="wave" style="transform:rotate(180deg); transition: 0.3s" viewBox="0 0 1440 330" version="1.1" xmlns="http://www.w3.org/2000/svg"><defs><linearGradient id="sw-gradient-0" x1="0" x2="0" y1="1" y2="0"><stop stop-color="rgba(243, 106, 62, 1)" offset="0%"/><stop stop-color="rgba(255, 179, 11, 1)" offset="100%"/></linearGradient></defs><path style="transform:translate(0, 0px); opacity:1" fill="url(#sw-gradient-0)" d="M0,264L80,236.5C160,209,320,154,480,132C640,110,800,121,960,137.5C1120,154,1280,176,1440,159.5C1600,143,1760,88,1920,93.5C2080,99,2240,165,2400,192.5C2560,220,2720,209,2880,192.5C3040,176,3200,154,3360,132C3520,110,3680,88,3840,99C4000,110,4160,154,4320,192.5C4480,231,4640,264,4800,264C4960,264,5120,231,5280,220C5440,209,5600,220,5760,225.5C5920,231,6080,231,6240,203.5C6400,176,6560,121,6720,126.5C6880,132,7040,198,7200,225.5C7360,253,7520,242,7680,242C7840,242,8000,253,8160,247.5C8320,242,8480,220,8640,203.5C8800,187,8960,176,9120,192.5C9280,209,9440,253,9600,264C9760,275,9920,253,10080,214.5C10240,176,10400,121,10560,121C10720,121,10880,176,11040,192.5C11200,209,11360,187,11440,176L11520,165L11520,330L11440,330C11360,330,11200,330,11040,330C10880,330,10720,330,10560,330C10400,330,10240,330,10080,330C9920,330,9760,330,9600,330C9440,330,9280,330,9120,330C8960,330,8800,330,8640,330C8480,330,8320,330,8160,330C8000,330,7840,330,7680,330C7520,330,7360,330,7200,330C7040,330,6880,330,6720,330C6560,330,6400,330,6240,330C6080,330,5920,330,5760,330C5600,330,5440,330,5280,330C5120,330,4960,330,4800,330C4640,330,4480,330,4320,330C4160,330,4000,330,3840,330C3680,330,3520,330,3360,330C3200,330,3040,330,2880,330C2720,330,2560,330,2400,330C2240,330,2080,330,1920,330C1760,330,1600,330,1440,330C1280,330,1120,330,960,330C800,330,640,330,480,330C320,330,160,330,80,330L0,330Z"/><defs><linearGradient id="sw-gradient-1" x1="0" x2="0" y1="1" y2="0"><stop stop-color="rgba(243, 106, 62, 1)" offset="0%"/><stop stop-color="rgba(255, 179, 11, 1)" offset="100%"/></linearGradient></defs><path style="transform:translate(0, 50px); opacity:0.9" fill="url(#sw-gradient-1)" d="M0,33L80,44C160,55,320,77,480,115.5C640,154,800,209,960,236.5C1120,264,1280,264,1440,242C1600,220,1760,176,1920,154C2080,132,2240,132,2400,132C2560,132,2720,132,2880,115.5C3040,99,3200,66,3360,71.5C3520,77,3680,121,3840,126.5C4000,132,4160,99,4320,77C4480,55,4640,44,4800,71.5C4960,99,5120,165,5280,198C5440,231,5600,231,5760,198C5920,165,6080,99,6240,82.5C6400,66,6560,99,6720,104.5C6880,110,7040,88,7200,110C7360,132,7520,198,7680,214.5C7840,231,8000,198,8160,176C8320,154,8480,143,8640,121C8800,99,8960,66,9120,82.5C9280,99,9440,165,9600,209C9760,253,9920,275,10080,275C10240,275,10400,253,10560,225.5C10720,198,10880,165,11040,137.5C11200,110,11360,88,11440,77L11520,66L11520,330L11440,330C11360,330,11200,330,11040,330C10880,330,10720,330,10560,330C10400,330,10240,330,10080,330C9920,330,9760,330,9600,330C9440,330,9280,330,9120,330C8960,330,8800,330,8640,330C8480,330,8320,330,8160,330C8000,330,7840,330,7680,330C7520,330,7360,330,7200,330C7040,330,6880,330,6720,330C6560,330,6400,330,6240,330C6080,330,5920,330,5760,330C5600,330,5440,330,5280,330C5120,330,4960,330,4800,330C4640,330,4480,330,4320,330C4160,330,4000,330,3840,330C3680,330,3520,330,3360,330C3200,330,3040,330,2880,330C2720,330,2560,330,2400,330C2240,330,2080,330,1920,330C1760,330,1600,330,1440,330C1280,330,1120,330,960,330C800,330,640,330,480,330C320,330,160,330,80,330L0,330Z"/><defs><linearGradient id="sw-gradient-2" x1="0" x2="0" y1="1" y2="0"><stop stop-color="rgba(243, 106, 62, 1)" offset="0%"/><stop stop-color="rgba(255, 179, 11, 1)" offset="100%"/></linearGradient></defs><path style="transform:translate(0, 100px); opacity:0.8" fill="url(#sw-gradient-2)" d="M0,264L80,220C160,176,320,88,480,82.5C640,77,800,154,960,181.5C1120,209,1280,187,1440,198C1600,209,1760,253,1920,258.5C2080,264,2240,231,2400,209C2560,187,2720,176,2880,154C3040,132,3200,99,3360,99C3520,99,3680,132,3840,132C4000,132,4160,99,4320,121C4480,143,4640,220,4800,209C4960,198,5120,99,5280,77C5440,55,5600,110,5760,115.5C5920,121,6080,77,6240,71.5C6400,66,6560,99,6720,115.5C6880,132,7040,132,7200,132C7360,132,7520,132,7680,154C7840,176,8000,220,8160,209C8320,198,8480,132,8640,88C8800,44,8960,22,9120,44C9280,66,9440,132,9600,143C9760,154,9920,110,10080,77C10240,44,10400,22,10560,55C10720,88,10880,176,11040,220C11200,264,11360,264,11440,264L11520,264L11520,330L11440,330C11360,330,11200,330,11040,330C10880,330,10720,330,10560,330C10400,330,10240,330,10080,330C9920,330,9760,330,9600,330C9440,330,9280,330,9120,330C8960,330,8800,330,8640,330C8480,330,8320,330,8160,330C8000,330,7840,330,7680,330C7520,330,7360,330,7200,330C7040,330,6880,330,6720,330C6560,330,6400,330,6240,330C6080,330,5920,330,5760,330C5600,330,5440,330,5280,330C5120,330,4960,330,4800,330C4640,330,4480,330,4320,330C4160,330,4000,330,3840,330C3680,330,3520,330,3360,330C3200,330,3040,330,2880,330C2720,330,2560,330,2400,330C2240,330,2080,330,1920,330C1760,330,1600,330,1440,330C1280,330,1120,330,960,330C800,330,640,330,480,330C320,330,160,330,80,330L0,330Z"/></svg>